-
http:// www. Speed. Cd       
http:// www. Speed. Cd       the fast  and The Hottest Private Tracker on the net

Please Seed back to make the speed Faster!!!

and don't forget to visit      ...... www. Speed. Cd..........
-[img]http://img203.imageshack.us/img203/4442/fadingw.jpg[/img]

[color=blue][size=5][b]Fading of The Cries 2011 R5 DVDRip XVID AC3 HQ Hive-CM8[/b][/size][/color]


[b]Thx Hive

CM8 Doing It Right The First Time :D

Source Russian DVD-5

Zatihajushie.kriki.2011.P.DVD.ELEKTRI4KA

Encode:
added brightness,sharpness,rgb and denoise
English 5.1 audio was already on the dvd-r

Video: 720x400 @bitrate 1900 2pass
Audio: English AC3 5.1 @448
Sample: yes included[/b]


[url]http://www.imdb.com/title/tt1262406/[/url]


General
Complete name                    : Fading.of.The.Cries.2011.R5.DVDRip.XVID.AC3.HQ.Hive-CM8.avi
Format                           : AVI
Format/Info                      : Audio Video Interleave
File size                        : 1.47 GiB
Duration                         : 1h 29mn
Overall bit rate                 : 2 356 Kbps
Writing application              : Nandub v1.0rc2
Writing library                  : Nandub build 1853/release

Video
ID                               : 0
Format                           : MPEG-4 Visual
Format profile                   : Advanced Simple@L5
Format settings, BVOP            : Yes
Format settings, QPel            : Yes
Format settings, GMC             : No warppoints
Format settings, Matrix          : Default (H.263)
Muxing mode                      : Packed bitstream
Codec ID                         : XVID
Codec ID/Hint                    : XviD
Duration                         : 1h 29mn
Bit rate                         : 1 899 Kbps
Width                            : 720 pixels
Height                           : 400 pixels
Display aspect ratio             : 16:9
Frame rate                       : 25.000 fps
Color space                      : YUV
Chroma subsampling               : 4:2:0
Bit depth                        : 8 bits
Scan type                        : Progressive
Bits/(Pixel*Frame)               : 0.264
Stream size                      : 1.19 GiB (81%)
Writing library                  : XviD 1.2.1 (UTC 2008-12-04)

Audio
ID                               : 1
Format                           : AC-3
Format/Info                      : Audio Coding 3
Mode extension                   : CM (complete main)
Codec ID                         : 2000
Duration                         : 1h 29mn
Bit rate mode                    : Constant
Bit rate                         : 448 Kbps
Channel(s)                       : 6 channels
Channel positions                : Front: L C R, Side: L R, LFE
Sampling rate                    : 48.0 KHz
Bit depth                        : 16 bits
Stream size                      : 287 MiB (19%)
Alignment                        : Split accross interleaves
Interleave, duration             : 40 ms (1.00 video frame)
Interleave, preload duration     : 500 ms



Mackenzie Rosman	 ... 	Jill
Brad Dourif	... 	Mathias
Thomas Ian Nicholas	... 	Michael
Elaine Hendrix	... 	Maggie
Lateef Crowder	... 	Sylathus
Hallee Hirsh	... 	Sarah
Jessica Morris	... 	Malyhne


Jacob sets out to get Sarah home safely, running through streets, fields, 
churches and underground tunnels, while being pursued by hordes of demonic creatures. 
Along the way, both come to terms with the demons within themselves - Sarah begins to 
understand her hatred towards her mother and sister may be unjustified and Jacob discovers 
the secrets of his past, realizing the only way to truly defeat the demons is to return to 
the very place his family was murdered. 



[img]http://img814.imageshack.us/img814/5338/92461593.png[/img]
[img]http://img709.imageshack.us/img709/8691/fafad.png[/img]
[img]http://img854.imageshack.us/img854/7726/fafafa.png[/img]
[img]http://img856.imageshack.us/img856/2644/fafafafa.png[/img]
[img]http://img62.imageshack.us/img62/7402/fafafafafal.png[/img]
[img]http://img696.imageshack.us/img696/2600/fafafafafafa.png[/img]
[img]http://img854.imageshack.us/img854/5433/fafafaffaafafa.png[/img]
[img]http://img69.imageshack.us/img69/6791/fafafaffafaafafa.png[/img]



Greetz

ViSiON,LUSi,SANTi,MAGNET,THC,T0XiCiNK,LKRG,IMAGiNE,WBZ,FLAWL3SS,NOVA
Vik,Rapeseed,D2U,SAFC,goldadvance,MEMORY100,KaN1vE,Unevano,Pinnz,Wayne,Mr Hive
and all P2P groups 
Great Work Guys :D


CM8@hushmail.com